<svg xmlns="http://www.w3.org/2000/svg" viewBox="0 0 64 64" role="img" aria-label="C# icon">
  <rect width="64" height="64" rx="12" fill="#18181b" stroke="#3f3f46" stroke-width="1.5"/>
  <path fill="#8a5cf6" d="M36.2 39.8c-1.8 1.1-4 1.7-6.5 1.7-5.5 0-9.8-3.8-9.8-9.5s4.3-9.5 9.8-9.5c2.5 0 4.7.6 6.5 1.7l2.3-4.3c-2.6-1.7-5.8-2.6-9.1-2.6-8.8 0-15.6 6.1-15.6 14.7s6.8 14.7 15.6 14.7c3.3 0 6.5-.9 9.1-2.6l-2.4-4.6Z"/>
  <path fill="#a78bfa" d="M49 22h-2.5l-1 4.5h-4l1-4.5H40l-1 4.5h-4l-1 4.5h4l-1 4.5h-4l-1 4.5h4l-1 4.5h2.5l1-4.5h4l-1 4.5H49l1-4.5h4l1-4.5h-4l1-4.5h4l1-4.5h-4l1-4.5ZM44.5 35.5h-4l1-4.5h4l-1 4.5Z"/>
</svg>
