<svg xmlns="http://www.w3.org/2000/svg" viewBox="0 0 64 64" fill="none" role="img" aria-label="Figma icon">
  <rect width="64" height="64" rx="12" fill="#1e1e1e"/>
  <path d="M20 18c0-4.4 3.6-8 8-8h8v16h-8c-4.4 0-8-3.6-8-8z" fill="#F24E1E"/>
  <path d="M36 10h8c4.4 0 8 3.6 8 8s-3.6 8-8 8h-8V10z" fill="#A259FF"/>
  <path d="M20 34c0-4.4 3.6-8 8-8h8v16h-8c-4.4 0-8-3.6-8-8z" fill="#A259FF"/>
  <path d="M36 34a8 8 0 1 0 16 0 8 8 0 1 0-16 0z" fill="#18A0FB"/>
  <path d="M28 42c-4.4 0-8 3.6-8 8s3.6 8 8 8c4.4 0 8-3.6 8-8v-8h-8z" fill="#0ACF83"/>
</svg>
